HIERARCHY
ROOT newVegas:Hips
{
	OFFSET 0.000000 96.479958 0.000000
	CHANNELS 6 Xposition Yposition Zposition Xrotation Yrotation Zrotation
	JOINT newVegas:Pelvis
	{
		OFFSET 0.000000 0.000000 0.000000
		CHANNELS 3 Xrotation Yrotation Zrotation
		JOINT newVegas:LeftUpLeg
		{
			OFFSET 18.735201 -5.666702 -4.541200
			CHANNELS 3 Xrotation Yrotation Zrotation
			JOINT newVegas:LeftLeg
			{
				OFFSET -0.021200 -31.938179 0.493100
				CHANNELS 3 Xrotation Yrotation Zrotation
				JOINT newVegas:LeftFoot
				{
					OFFSET 0.021200 -31.938179 -4.336299
					CHANNELS 3 Xrotation Yrotation Zrotation
					JOINT newVegas:LeftToeBase
					{
						OFFSET 0.943001 -26.722000 15.023500
						CHANNELS 3 Xrotation Yrotation Zrotation
						End Site
						{
							OFFSET 0.000000 30.670183 0.000000
						}
					}
				}
				JOINT newVegas:Left_PantLeg
				{
					OFFSET 0.663870 -9.044666 -1.108900
					CHANNELS 3 Xrotation Yrotation Zrotation
					End Site
					{
						OFFSET 1.415995 20.635357 0.000000
					}
				}
			}
		}
		JOINT newVegas:RightUpLeg
		{
			OFFSET -18.735201 -5.666702 -4.541200
			CHANNELS 3 Xrotation Yrotation Zrotation
			JOINT newVegas:RightLeg
			{
				OFFSET 0.018946 -31.938133 0.493100
				CHANNELS 3 Xrotation Yrotation Zrotation
				JOINT newVegas:RightFoot
				{
					OFFSET -0.018946 -31.938126 -4.336299
					CHANNELS 3 Xrotation Yrotation Zrotation
					JOINT newVegas:RightToeBase
					{
						OFFSET -0.943001 -26.722004 15.023500
						CHANNELS 3 Xrotation Yrotation Zrotation
						End Site
						{
							OFFSET 0.000000 30.670187 0.000000
						}
					}
				}
				JOINT newVegas:Right_PantLeg
				{
					OFFSET -0.661674 -9.044716 -1.108900
					CHANNELS 3 Xrotation Yrotation Zrotation
					End Site
					{
						OFFSET -1.415958 20.635269 0.000000
					}
				}
			}
		}
	}
	JOINT newVegas:Spine
	{
		OFFSET 0.000000 10.199997 -0.299500
		CHANNELS 3 Xrotation Yrotation Zrotation
		JOINT newVegas:Spine1
		{
			OFFSET 0.000000 11.900002 -1.516600
			CHANNELS 3 Xrotation Yrotation Zrotation
			JOINT newVegas:Spine2
			{
				OFFSET 0.000000 13.600006 -2.842500
				CHANNELS 3 Xrotation Yrotation Zrotation
				JOINT newVegas:Neck
				{
					OFFSET 0.000000 9.624100 -2.890100
					CHANNELS 3 Xrotation Yrotation Zrotation
					JOINT newVegas:Head
					{
						OFFSET 0.000000 14.068802 -1.351900
						CHANNELS 3 Xrotation Yrotation Zrotation
						JOINT newVegas:Hair_Back
						{
							OFFSET 0.000000 3.231903 -17.524799
							CHANNELS 3 Xrotation Yrotation Zrotation
							End Site
							{
								OFFSET 0.000000 19.849884 0.000000
							}
						}
						JOINT newVegas:Hair_Front
						{
							OFFSET 0.000000 31.260406 4.573800
							CHANNELS 3 Xrotation Yrotation Zrotation
							JOINT newVegas:Hair_Front1
							{
								OFFSET 0.000000 2.284103 11.993300
								CHANNELS 3 Xrotation Yrotation Zrotation
								JOINT newVegas:Hair_Front2
								{
									OFFSET 0.000000 2.284103 11.993300
									CHANNELS 3 Xrotation Yrotation Zrotation
									End Site
									{
										OFFSET 0.000000 12.208862 0.000000
									}
								}
							}
						}
						JOINT newVegas:Jowel
						{
							OFFSET 0.000000 -7.458206 6.864100
							CHANNELS 3 Xrotation Yrotation Zrotation
							End Site
							{
								OFFSET 0.000000 19.849884 0.000000
							}
						}
					}
				}
				JOINT newVegas:LeftShoulder
				{
					OFFSET 15.263000 10.923401 -0.547700
					CHANNELS 3 Xrotation Yrotation Zrotation
					JOINT newVegas:LeftArm
					{
						OFFSET 25.438599 -2.830597 -13.032500
						CHANNELS 3 Xrotation Yrotation Zrotation
						JOINT newVegas:LeftForeArm
						{
							OFFSET 29.960503 0.000000 0.000000
							CHANNELS 3 Xrotation Yrotation Zrotation
							JOINT newVegas:LeftHand
							{
								OFFSET 27.849251 0.000000 0.000000
								CHANNELS 3 Xrotation Yrotation Zrotation
								JOINT newVegas:LeftHandThumb1
								{
									OFFSET 4.487587 -3.305161 6.305391
									CHANNELS 3 Xrotation Yrotation Zrotation
									JOINT newVegas:LeftHandThumb2
									{
										OFFSET 5.480453 -3.164139 3.164143
										CHANNELS 3 Xrotation Yrotation Zrotation
										JOINT newVegas:LeftHandThumb3
										{
											OFFSET 5.159721 -2.978973 2.978967
											CHANNELS 3 Xrotation Yrotation Zrotation
											End Site
											{
												OFFSET 2.494507 5.926697 1.738678
											}
										}
									}
								}
								JOINT newVegas:LeftHandIndex1
								{
									OFFSET 18.578728 -0.527832 5.208049
									CHANNELS 3 Xrotation Yrotation Zrotation
									JOINT newVegas:LeftHandIndex2
									{
										OFFSET 3.192009 0.000000 0.000000
										CHANNELS 3 Xrotation Yrotation Zrotation
										JOINT newVegas:LeftHandIndex3
										{
											OFFSET 3.835129 0.000000 0.000000
											CHANNELS 3 Xrotation Yrotation Zrotation
											End Site
											{
												OFFSET -0.034599 3.816971 0.371180
											}
										}
									}
								}
								JOINT newVegas:LeftHandMiddle1
								{
									OFFSET 18.476105 0.000000 0.000000
									CHANNELS 3 Xrotation Yrotation Zrotation
									JOINT newVegas:LeftHandMiddle2
									{
										OFFSET 3.324875 0.000000 0.000000
										CHANNELS 3 Xrotation Yrotation Zrotation
										JOINT newVegas:LeftHandMiddle3
										{
											OFFSET 4.596550 0.000000 0.000000
											CHANNELS 3 Xrotation Yrotation Zrotation
											End Site
											{
												OFFSET 0.057701 4.578827 0.399218
											}
										}
									}
								}
								JOINT newVegas:LeftHandRing1
								{
									OFFSET 17.732719 0.121887 -4.201567
									CHANNELS 3 Xrotation Yrotation Zrotation
									JOINT newVegas:LeftHandRing2
									{
										OFFSET 2.733170 0.000000 0.000000
										CHANNELS 3 Xrotation Yrotation Zrotation
										JOINT newVegas:LeftHandRing3
										{
											OFFSET 3.178268 0.000000 0.000000
											CHANNELS 3 Xrotation Yrotation Zrotation
											End Site
											{
												OFFSET 0.119102 3.170624 0.185394
											}
										}
									}
								}
								JOINT newVegas:LeftHandPinky1
								{
									OFFSET 15.989624 -0.606689 -7.535461
									CHANNELS 3 Xrotation Yrotation Zrotation
									JOINT newVegas:LeftHandPinky2
									{
										OFFSET 2.538986 0.000000 0.000000
										CHANNELS 3 Xrotation Yrotation Zrotation
										JOINT newVegas:LeftHandPinky3
										{
											OFFSET 2.593102 0.000000 0.000000
											CHANNELS 3 Xrotation Yrotation Zrotation
											End Site
											{
												OFFSET -0.150902 2.584198 0.152708
											}
										}
									}
								}
							}
							JOINT newVegas:Left_Sleeve
							{
								OFFSET 0.267448 -0.649796 0.577675
								CHANNELS 3 Xrotation Yrotation Zrotation
								End Site
								{
									OFFSET 0.000000 15.991241 0.000000
								}
							}
							JOINT newVegas:Left_CapeC
							{
								OFFSET 15.715958 -8.608795 -6.935905
								CHANNELS 3 Xrotation Yrotation Zrotation
								JOINT newVegas:Left_CapeC1
								{
									OFFSET 0.000000 -8.688499 0.000000
									CHANNELS 3 Xrotation Yrotation Zrotation
									End Site
									{
										OFFSET 0.000000 8.688499 0.000000
									}
								}
							}
						}
						JOINT newVegas:Left_CapeB
						{
							OFFSET 26.118385 -8.608795 -7.079235
							CHANNELS 3 Xrotation Yrotation Zrotation
							JOINT newVegas:Left_CapeB1
							{
								OFFSET 0.000000 -8.688499 0.000000
								CHANNELS 3 Xrotation Yrotation Zrotation
								End Site
								{
									OFFSET 0.000000 8.688499 0.000000
								}
							}
						}
						JOINT newVegas:Left_CapeA
						{
							OFFSET 5.115639 -8.608795 -10.395809
							CHANNELS 3 Xrotation Yrotation Zrotation
							JOINT newVegas:Left_CapeA1
							{
								OFFSET 0.000000 -8.688499 0.000000
								CHANNELS 3 Xrotation Yrotation Zrotation
								End Site
								{
									OFFSET 0.000000 8.688499 0.000000
								}
							}
						}
					}
				}
				JOINT newVegas:RightShoulder
				{
					OFFSET -15.263000 10.923401 -0.547700
					CHANNELS 3 Xrotation Yrotation Zrotation
					JOINT newVegas:RightArm
					{
						OFFSET -25.438599 -2.830597 -13.032500
						CHANNELS 3 Xrotation Yrotation Zrotation
						JOINT newVegas:RightForeArm
						{
							OFFSET -29.960503 0.000000 0.000000
							CHANNELS 3 Xrotation Yrotation Zrotation
							JOINT newVegas:RightHand
							{
								OFFSET -27.849251 0.000000 0.000000
								CHANNELS 3 Xrotation Yrotation Zrotation
								JOINT newVegas:RightHandThumb1
								{
									OFFSET -4.487587 -3.305161 6.305391
									CHANNELS 3 Xrotation Yrotation Zrotation
									JOINT newVegas:RightHandThumb2
									{
										OFFSET -5.480453 -3.164139 3.164143
										CHANNELS 3 Xrotation Yrotation Zrotation
										JOINT newVegas:RightHandThumb3
										{
											OFFSET -5.159721 -2.978973 2.978967
											CHANNELS 3 Xrotation Yrotation Zrotation
											End Site
											{
												OFFSET -2.494507 5.926697 1.738678
											}
										}
									}
								}
								JOINT newVegas:RightHandIndex1
								{
									OFFSET -18.578728 -0.527832 5.208049
									CHANNELS 3 Xrotation Yrotation Zrotation
									JOINT newVegas:RightHandIndex2
									{
										OFFSET -3.192009 0.000000 0.000000
										CHANNELS 3 Xrotation Yrotation Zrotation
										JOINT newVegas:RightHandIndex3
										{
											OFFSET -3.835129 0.000000 0.000000
											CHANNELS 3 Xrotation Yrotation Zrotation
											End Site
											{
												OFFSET 0.034599 3.816971 0.371180
											}
										}
									}
								}
								JOINT newVegas:RightHandMiddle1
								{
									OFFSET -18.476105 0.000000 0.000000
									CHANNELS 3 Xrotation Yrotation Zrotation
									JOINT newVegas:RightHandMiddle2
									{
										OFFSET -3.324875 0.000000 0.000000
										CHANNELS 3 Xrotation Yrotation Zrotation
										JOINT newVegas:RightHandMiddle3
										{
											OFFSET -4.596550 0.000000 0.000000
											CHANNELS 3 Xrotation Yrotation Zrotation
											End Site
											{
												OFFSET -0.057701 4.578827 0.399218
											}
										}
									}
								}
								JOINT newVegas:RightHandRing1
								{
									OFFSET -17.732719 0.121887 -4.201567
									CHANNELS 3 Xrotation Yrotation Zrotation
									JOINT newVegas:RightHandRing2
									{
										OFFSET -2.733170 0.000000 0.000000
										CHANNELS 3 Xrotation Yrotation Zrotation
										JOINT newVegas:RightHandRing3
										{
											OFFSET -3.178268 0.000000 0.000000
											CHANNELS 3 Xrotation Yrotation Zrotation
											End Site
											{
												OFFSET -0.119102 3.170624 0.185394
											}
										}
									}
								}
								JOINT newVegas:RightHandPinky1
								{
									OFFSET -15.989624 -0.606689 -7.535461
									CHANNELS 3 Xrotation Yrotation Zrotation
									JOINT newVegas:RightHandPinky2
									{
										OFFSET -2.538986 0.000000 0.000000
										CHANNELS 3 Xrotation Yrotation Zrotation
										JOINT newVegas:RightHandPinky3
										{
											OFFSET -2.593102 0.000000 0.000000
											CHANNELS 3 Xrotation Yrotation Zrotation
											End Site
											{
												OFFSET 0.150902 2.584198 0.152708
											}
										}
									}
								}
							}
							JOINT newVegas:Right_CapeC
							{
								OFFSET -15.715958 -8.608795 -6.935905
								CHANNELS 3 Xrotation Yrotation Zrotation
								JOINT newVegas:Right_CapeC1
								{
									OFFSET 0.000000 -8.688499 0.000000
									CHANNELS 3 Xrotation Yrotation Zrotation
									End Site
									{
										OFFSET 0.000000 8.688499 0.000000
									}
								}
							}
							JOINT newVegas:Right_Sleeve
							{
								OFFSET -0.267448 -0.649994 0.577675
								CHANNELS 3 Xrotation Yrotation Zrotation
								End Site
								{
									OFFSET 0.000000 15.991302 0.000000
								}
							}
						}
						JOINT newVegas:Right_CapeA
						{
							OFFSET -5.115540 -8.608795 -10.395824
							CHANNELS 3 Xrotation Yrotation Zrotation
							JOINT newVegas:Right_CapeA1
							{
								OFFSET 0.000000 -8.688499 0.000000
								CHANNELS 3 Xrotation Yrotation Zrotation
								End Site
								{
									OFFSET 0.000000 8.688499 0.000000
								}
							}
						}
						JOINT newVegas:Right_CapeB
						{
							OFFSET -26.118187 -8.608795 -7.079266
							CHANNELS 3 Xrotation Yrotation Zrotation
							JOINT newVegas:Right_CapeB1
							{
								OFFSET 0.000000 -8.688499 0.000000
								CHANNELS 3 Xrotation Yrotation Zrotation
								End Site
								{
									OFFSET 0.000000 8.688499 0.000000
								}
							}
						}
					}
				}
				JOINT newVegas:Left_Collar
				{
					OFFSET 18.625099 8.655502 8.828100
					CHANNELS 3 Xrotation Yrotation Zrotation
					JOINT newVegas:Left_Collar1
					{
						OFFSET 14.783401 10.540405 -1.259500
						CHANNELS 3 Xrotation Yrotation Zrotation
						End Site
						{
							OFFSET 0.000000 18.199875 0.000000
						}
					}
				}
				JOINT newVegas:Collar_Back
				{
					OFFSET 0.000000 15.630707 -20.132601
					CHANNELS 3 Xrotation Yrotation Zrotation
					End Site
					{
						OFFSET 0.000000 22.523010 0.000000
					}
				}
				JOINT newVegas:Left_Peck
				{
					OFFSET 17.239599 -5.132599 25.482599
					CHANNELS 3 Xrotation Yrotation Zrotation
					End Site
					{
						OFFSET 0.000000 22.523010 0.000000
					}
				}
				JOINT newVegas:Right_Peck
				{
					OFFSET -17.239599 -5.132202 25.482599
					CHANNELS 3 Xrotation Yrotation Zrotation
					End Site
					{
						OFFSET 0.000000 22.523010 0.000000
					}
				}
				JOINT newVegas:Right_Collar
				{
					OFFSET -18.625099 8.655792 8.828100
					CHANNELS 3 Xrotation Yrotation Zrotation
					JOINT newVegas:Right_Collar1
					{
						OFFSET -14.783401 10.539993 -1.259500
						CHANNELS 3 Xrotation Yrotation Zrotation
						End Site
						{
							OFFSET 0.000000 18.199631 0.000000
						}
					}
				}
			}
		}
		JOINT newVegas:Belly
		{
			OFFSET 0.000000 -6.540398 9.014299
			CHANNELS 3 Xrotation Yrotation Zrotation
			End Site
			{
				OFFSET 0.000000 11.566666 0.000000
			}
		}
	}
	JOINT newVegas:ElvisFacialAnim_Joint
	{
		OFFSET 1.000000 -95.330101 -8.825800
		CHANNELS 3 Xrotation Yrotation Zrotation
		End Site
		{
			OFFSET 0.000000 35.315800 0.000000
		}
	}
}
MOTION
Frames: 4
Frame Time: 0.033333
-2.630757 82.746201 2.739438 -6.077186 -42.927684 -3.741971 -0.000000 -0.000001 -0.000000 -44.948102 -1.310012 18.045718 54.511907 -10.807696 -0.266681 -6.500003 -3.487424 -11.885805 -0.000000 -0.000000 -0.000000 -0.000000 -0.000000 0.000000 -3.694524 -10.646331 -22.024727 49.940250 -5.556054 -0.127110 -35.592396 -9.662444 23.991530 0.000000 0.000002 0.000000 0.000004 0.000001 -0.000003 5.854307 4.510919 -1.500639 11.836539 9.037607 -3.083969 11.836537 9.037613 -3.083970 -0.574058 -0.168799 0.033026 -0.574064 -0.168798 0.033025 0.000001 0.000001 0.000000 -0.574061 -0.168802 0.033026 -0.574051 -0.168816 0.033027 -0.000000 0.000003 -0.000001 0.000001 0.000001 -0.000000 1.392487 -0.696039 -7.878119 -17.225674 0.898697 -63.191524 -0.000011 -42.610586 -0.000027 11.900950 -1.704058 21.975118 38.404275 -1.269661 14.611665 3.631940 6.093802 -0.671465 -0.000000 0.000003 -0.000007 0.221394 -3.166087 -9.481599 0.086336 1.003104 -9.837819 -0.000002 -0.000003 0.000001 0.436859 5.174677 -8.894406 0.224010 1.606076 -15.879218 0.000000 -0.000003 0.000005 2.827867 12.581936 -16.002867 0.312139 1.888468 -18.768844 0.000001 0.000001 -0.000000 2.480838 12.169209 -24.496839 0.246243 1.682223 -16.654066 0.000002 0.000002 0.000000 0.000001 0.000002 -0.000003 0.000001 0.000002 -0.000003 0.000000 0.000002 -0.000003 -0.000001 -0.000002 -0.000001 -0.000000 -0.000002 -0.000003 -0.000001 -0.000002 -0.000001 -0.000000 -0.000002 -0.000001 1.410950 9.461514 9.792453 -1.910861 -22.605628 59.287449 0.000005 37.045956 0.000016 -7.499287 9.436048 4.506718 -16.380301 1.669848 -6.671174 11.172357 -26.973568 -3.853782 0.000000 -0.000002 -0.000003 0.245354 -4.322148 6.246042 0.048910 -0.673855 8.301503 0.000002 -0.000000 -0.000000 0.291002 -4.821903 5.957069 0.384910 -1.855651 23.435255 -0.000003 0.000001 0.000000 0.204253 -3.829867 7.019410 0.413567 -1.920364 24.304893 0.000000 0.000001 -0.000000 -0.701320 -2.585901 14.662905 0.245830 -1.494554 18.679919 -0.000002 0.000003 0.000001 0.000002 -0.000000 -0.000000 0.000002 -0.000001 -0.000002 0.000002 -0.000000 -0.000001 -0.000002 -0.000001 -0.000001 -0.000002 0.000000 -0.000001 -0.000002 -0.000001 -0.000001 -0.000002 -0.000001 -0.000001 0.000001 0.000002 -0.000000 0.000001 0.000002 -0.000000 0.000001 0.000002 -0.000000 0.000001 0.000002 -0.000000 0.000001 0.000002 -0.000000 0.000001 0.000002 -0.000000 0.000001 0.000002 -0.000000 -0.000000 -0.000004 0.000000 -0.000000 -0.000001 -0.000000 
-1.434136 82.079071 0.904990 -4.936933 -42.469085 -2.337427 -0.000000 0.000000 0.000000 -47.666722 -2.012024 16.487033 53.005137 -9.628265 0.132435 -2.417876 -3.790470 -12.372504 0.000000 -0.000000 -0.000000 -0.000001 -0.000005 0.000003 -8.677885 -9.383408 -22.755195 55.537286 -5.092914 -0.119191 -36.993121 -10.415540 23.229829 -0.000000 0.000001 0.000000 0.000002 -0.000001 -0.000000 6.338399 4.241622 -1.065029 11.650035 8.675992 -2.933028 11.654759 8.678409 -2.933659 -0.429475 -0.138335 -0.019386 -0.429476 -0.138337 -0.019383 -0.000001 -0.000000 0.000001 -0.429478 -0.138339 -0.019384 -0.429473 -0.138333 -0.019383 0.000000 0.000000 -0.000001 -0.000001 -0.000000 0.000001 1.332145 -2.479437 -8.536274 -15.754385 -1.704603 -61.914224 0.000001 -40.061255 0.000003 8.703913 -4.218179 21.284406 37.011422 -1.124812 14.335204 4.642497 9.517079 -0.675003 0.000000 -0.000001 -0.000001 -0.477229 -2.102483 -17.485648 0.088572 1.015925 -9.964956 -0.000001 0.000002 0.000002 0.732656 5.614632 -14.985380 0.264774 1.742967 -17.274252 0.000004 -0.000001 0.000000 3.936273 11.902720 -24.815477 0.447563 2.247653 -22.520085 -0.000001 -0.000002 -0.000000 0.142276 8.093299 -26.653679 0.357788 2.017711 -20.107974 -0.000001 0.000003 0.000001 0.000001 -0.000004 0.000003 0.000001 -0.000004 0.000003 0.000000 -0.000004 0.000003 -0.000000 -0.000001 -0.000001 -0.000000 -0.000001 -0.000001 -0.000000 -0.000001 -0.000001 0.000000 -0.000002 -0.000001 1.335290 11.246870 9.434520 -0.036365 -19.178275 59.739348 0.000002 35.910211 0.000003 -10.430194 9.507020 3.635876 -15.848452 1.569298 -6.621089 14.457740 -31.527262 -1.589780 0.000003 0.000000 -0.000000 0.342278 -3.975190 9.947599 0.037762 -0.592464 7.292768 -0.000002 0.000001 -0.000000 0.230004 -3.829055 8.646462 0.335225 -1.736575 21.849835 0.000000 0.000002 0.000001 -0.067595 -2.212334 11.793264 0.339423 -1.747009 21.988011 0.000003 0.000001 0.000002 -1.138125 -2.237698 11.509933 0.363139 -1.804604 22.753271 -0.000001 -0.000000 -0.000000 0.000001 0.000000 -0.000003 0.000000 -0.000000 -0.000001 0.000001 0.000001 -0.000003 0.000001 -0.000001 -0.000000 0.000001 0.000000 -0.000001 0.000001 -0.000001 -0.000000 0.000001 -0.000000 -0.000001 0.000001 -0.000000 -0.000001 0.000001 -0.000000 -0.000001 0.000001 -0.000000 -0.000001 0.000001 -0.000000 -0.000001 0.000001 -0.000000 -0.000001 0.000001 -0.000000 -0.000001 0.000001 -0.000000 -0.000001 -0.000000 0.000001 -0.000000 -0.000000 0.000000 0.000000 
-0.043262 81.538467 -0.754853 -3.539957 -41.439625 -0.520279 0.000000 -0.000001 0.000000 -50.263461 -2.067437 14.940977 50.063251 -8.590527 -0.084810 2.619542 -4.925953 -12.568464 -0.000000 -0.000002 -0.000000 -0.000000 -0.000002 0.000001 -13.258592 -8.297037 -23.767315 60.072791 -4.745507 -0.008323 -37.785856 -11.295683 22.565664 0.000000 0.000001 -0.000000 -0.000002 0.000001 0.000002 6.898161 4.143908 -0.653109 11.509630 8.355643 -2.799310 11.518749 8.360673 -2.801171 -0.276352 -0.129056 -0.103296 -0.276341 -0.129061 -0.103290 0.000000 -0.000001 -0.000000 -0.276340 -0.129058 -0.103295 -0.276267 -0.129045 -0.103297 -0.000001 -0.000001 0.000000 0.000000 -0.000001 0.000000 1.221364 -4.429825 -9.615307 -14.579780 -4.905317 -60.363764 0.000012 -37.281573 0.000025 4.803596 -6.431522 19.697369 35.617411 -0.984140 14.056040 5.613815 12.464384 -0.654245 0.000001 -0.000002 -0.000003 -1.027427 -0.727332 -26.899069 0.084510 0.992552 -9.733273 -0.000002 -0.000002 -0.000000 0.963238 5.824011 -20.382476 0.291053 1.825282 -18.118062 -0.000002 -0.000001 -0.000000 4.813934 11.513232 -32.191266 0.600900 2.586373 -26.154782 -0.000004 0.000003 -0.000000 -2.035211 4.747296 -28.537321 0.489417 2.345996 -23.564504 0.000000 0.000000 -0.000001 -0.000001 -0.000002 0.000002 -0.000001 -0.000002 0.000002 -0.000002 -0.000001 0.000002 -0.000001 0.000000 0.000003 -0.000001 0.000001 0.000003 -0.000001 0.000000 0.000003 -0.000001 -0.000000 0.000003 1.286262 13.233984 8.917059 1.919852 -15.586808 60.288065 -0.000008 34.229565 0.000015 -13.339079 9.821653 2.969498 -15.317010 1.470941 -6.567941 17.807353 -35.232643 0.753972 -0.000001 -0.000000 -0.000000 0.351438 -3.568885 13.155720 0.044703 -0.644459 7.936845 -0.000001 -0.000000 -0.000000 -0.069446 -2.246478 12.284288 0.285086 -1.605940 20.130806 -0.000002 -0.000001 -0.000000 -0.751196 -0.504722 17.787498 0.360578 -1.798484 22.671754 -0.000001 -0.000001 -0.000000 -1.526586 -1.035424 1.819979 0.561125 -2.218096 28.389705 0.000002 -0.000000 0.000000 0.000000 -0.000000 -0.000001 0.000001 0.000000 -0.000001 0.000001 0.000000 0.000001 -0.000002 -0.000003 -0.000002 -0.000002 -0.000002 -0.000001 -0.000002 -0.000003 -0.000002 -0.000002 -0.000002 -0.000001 0.000001 0.000001 -0.000000 0.000001 0.000001 -0.000000 0.000001 0.000001 -0.000000 0.000001 0.000001 -0.000000 0.000001 0.000001 -0.000000 0.000001 0.000001 -0.000000 0.000001 0.000001 -0.000000 0.000000 0.000001 -0.000000 0.000000 -0.000001 0.000000 
1.475326 81.079651 -1.855449 -1.795836 -39.585178 1.708942 -0.000000 0.000001 0.000000 -52.869008 -1.625306 13.699977 45.920017 -8.034950 -1.000329 8.300169 -6.883056 -13.972868 -0.000000 0.000002 0.000000 0.000001 -0.000001 -0.000000 -16.988446 -7.519457 -25.361409 63.284209 -4.379849 0.300866 -38.110898 -12.490264 22.269972 -0.000000 0.000000 -0.000000 0.000001 0.000000 0.000000 7.317991 4.174679 -0.349379 11.340556 8.059823 -2.686671 11.353752 8.067201 -2.690165 -0.119414 -0.144629 -0.200364 -0.119440 -0.144620 -0.200369 0.000000 -0.000001 -0.000000 -0.119421 -0.144649 -0.200361 -0.119332 -0.144602 -0.200369 0.000001 -0.000002 -0.000000 0.000000 -0.000001 0.000000 1.037264 -6.485042 -10.900796 -13.481552 -8.375332 -58.805682 -0.000009 -34.457813 -0.000017 0.330097 -8.134126 17.056943 34.222246 -0.847441 13.773716 6.428066 14.649016 -0.483705 -0.000000 -0.000002 0.000002 -1.111272 0.801553 -35.582509 0.093142 1.041638 -10.219794 0.000004 0.000003 0.000002 1.277578 6.261833 -24.818915 0.335727 1.956490 -19.472137 0.000002 -0.000003 -0.000001 5.353352 11.293888 -36.884026 0.760904 2.889126 -29.503586 -0.000003 0.000001 0.000002 -3.578997 2.495431 -29.549133 0.611073 2.606976 -26.379514 0.000000 -0.000005 -0.000001 -0.000001 0.000000 -0.000001 -0.000001 0.000000 -0.000001 -0.000002 0.000001 -0.000001 0.000003 -0.000001 0.000001 0.000004 0.000000 -0.000001 0.000003 -0.000001 0.000001 0.000002 -0.000000 0.000001 1.298397 15.048672 8.404769 3.912929 -11.803983 60.820280 0.000005 31.987647 -0.000004 -15.937753 10.182135 3.151291 -14.785963 1.374882 -6.511742 19.999984 -37.229814 2.096093 -0.000000 -0.000000 -0.000000 0.366878 -3.623099 13.540538 0.059965 -0.745736 9.194260 -0.000003 0.000000 -0.000000 -0.426920 -1.032668 14.538700 0.247763 -1.500286 18.754214 0.000000 -0.000000 -0.000000 -1.189151 0.128867 20.902722 0.472494 -2.045747 26.007390 0.000001 0.000000 0.000003 -1.046036 0.405273 -12.939332 0.772714 -2.571061 33.450821 -0.000001 -0.000000 -0.000000 -0.000000 0.000000 0.000001 -0.000000 -0.000001 -0.000000 -0.000000 0.000000 -0.000000 0.000000 0.000005 -0.000000 0.000000 0.000006 0.000000 0.000000 0.000005 -0.000000 0.000000 0.000006 -0.000000 0.000001 0.000003 -0.000000 0.000001 0.000003 -0.000000 0.000001 0.000003 -0.000000 0.000001 0.000003 -0.000000 0.000001 0.000003 -0.000000 0.000001 0.000003 -0.000000 0.000001 0.000003 -0.000000 0.000000 0.000001 -0.000000 -0.000000 0.000001 0.000000 
